<svg xmlns="http://www.w3.org/2000/svg" version="1.1" xmlns:xlink="http://www.w3.org/1999/xlink" xmlns:svgjs="http://svgjs.dev/svgjs" width="2500" height="2500"><svg id="SvgjsSvg1025" fill="currentColor" xmlns="http://www.w3.org/2000/svg" xml:space="preserve" style="fill-rule:evenodd;clip-rule:evenodd;stroke-linejoin:round;stroke-miterlimit:2" viewBox="0 0 2500 2500">
  <path d="M-164.69-119.093c-78.364 0-96.295 63.527-96.295 141.891 0 78.365 17.931 141.892 96.295 141.892S-22.798 101.163-22.798 22.798c0-78.364-63.528-141.891-141.892-141.891" transform="matrix(0 -4.16667 -4.16667 0 1344.993 930.088)"></path>
    <path d="M-56.47-56.47c-31.187 0-56.47 25.282-56.47 56.47 0 31.187 25.283 56.47 56.47 56.47C-25.283 56.47 0 31.187 0 0c0-31.188-25.283-56.47-56.47-56.47" transform="matrix(0 -4.16667 -4.16667 0 845.55 482.48)"></path>
    <path d="M56.47-56.47c31.187 0 56.47 25.282 56.47 56.47 0 31.187-25.283 56.47-56.47 56.47C25.283 56.47 0 31.187 0 0c0-31.188 25.283-56.47 56.47-56.47" transform="matrix(0 4.16667 4.16667 0 1654.451 482.48)"></path>
    <path d="M-56.47-56.47c-31.187 0-56.47 25.282-56.47 56.47 0 31.187 25.283 56.47 56.47 56.47C-25.283 56.47 0 31.187 0 0c0-31.188-25.283-56.47-56.47-56.47" transform="matrix(0 -4.16667 -4.16667 0 297.792 1125.918)"></path>
    <path d="M56.47-56.47c31.187 0 56.47 25.282 56.47 56.47 0 31.187-25.283 56.47-56.47 56.47C25.283 56.47 0 31.187 0 0c0-31.188 25.283-56.47 56.47-56.47" transform="matrix(0 4.16667 4.16667 0 2202.21 1125.918)"></path>
</svg><style>@media (prefers-color-scheme: light) { :root { filter: none; } }
@media (prefers-color-scheme: dark) { :root { filter: none; } }
</style></svg>